<?xml version="1.0" encoding="UTF-8"?>
<svg width="40" height="40" viewBox="0 0 40 40" fill="none" xmlns="http://www.w3.org/2000/svg">
    <circle cx="20" cy="20" r="20" fill="#E5E7EB"/>
    <path d="M20 19C22.2091 19 24 17.2091 24 15C24 12.7909 22.2091 11 20 11C17.7909 11 16 12.7909 16 15C16 17.2091 17.7909 19 20 19Z" stroke="#9CA3AF" stroke-width="2" stroke-linecap="round" stroke-linejoin="round"/>
    <path d="M14 29V27C14 25.9391 14.4214 24.9217 15.1716 24.1716C15.9217 23.4214 16.9391 23 18 23H22C23.0609 23 24.0783 23.4214 24.8284 24.1716C25.5786 24.9217 26 25.9391 26 27V29" stroke="#9CA3AF" stroke-width="2" stroke-linecap="round" stroke-linejoin="round"/>
</svg> 