<?xml version="1.0" encoding="UTF-8"?>
<svg version="1.1" viewBox="0.0 0.0 205.45669291338584 100.0" fill="none" stroke="none" stroke-linecap="square" stroke-miterlimit="10" xmlns:xlink="http://www.w3.org/1999/xlink" xmlns="http://www.w3.org/2000/svg">
    <clipPath id="p.0">
        <path d="m0 0l205.4567 0l0 100.0l-205.4567 0l0 -100.0z" clip-rule="nonzero"/>
    </clipPath>
    <g clip-path="url(#p.0)">
        <path fill="#000000" fill-opacity="0.0" d="m0 0l205.4567 0l0 100.0l-205.4567 0z" fill-rule="evenodd"/>
        <path fill="#000000" fill-opacity="0.0" d="m0 0l218.01575 0l0 95.338585l-218.01575 0z" fill-rule="evenodd"/>
        <path fill="#3d85c6" d="m13.671875 44.839996l0 -23.328125l14.0 0l0 4.65625l-9.34375 0l0 4.671875l9.34375 0l0 4.671875l-9.34375 0l0 9.328125l-4.65625 0zm23.330154 0l0 -23.328125l14.0 0l0 4.65625l4.65625 0l0 4.671875l-4.65625 0l0 9.328125l4.65625 0l0 4.671875l-4.65625 0l0 -4.671875l-4.671875 0l0 -4.65625l-4.671875 0l0 9.328125l-4.65625 0zm4.65625 -14.0l9.15625 0l0 -4.671875l-9.15625 0l0 4.671875zm23.339935 14.0l0 -23.328125l14.0 0l0 4.65625l-9.34375 0l0 4.671875l9.34375 0l0 4.671875l-9.34375 0l0 4.65625l9.34375 0l0 4.671875l-14.0 0zm23.330154 0l0 -23.328125l14.0 0l0 4.65625l-9.34375 0l0 4.671875l9.34375 0l0 4.671875l-9.34375 0l0 4.65625l9.34375 0l0 4.671875l-14.0 0zm23.330154 0l0 -23.328125l14.0 0l0 4.65625l4.65625 0l0 14.0l-4.65625 0l0 4.671875l-14.0 0zm4.65625 -4.671875l9.15625 0l0 -14.0l-9.15625 0l0 14.0zm27.996185 4.671875l0 -4.671875l-4.65625 0l0 -14.0l4.65625 0l0 -4.65625l9.34375 0l0 4.65625l4.65625 0l0 14.0l-4.65625 0l0 4.671875l-9.34375 0zm0 -4.859375l9.34375 0l0 -13.625l-9.34375 0l0 13.625zm23.339935 4.859375l0 -23.328125l4.65625 0l0 4.65625l4.671875 0l0 4.671875l4.671875 0l0 4.671875l-4.671875 0l0 -4.671875l-4.671875 0l0 14.0l-4.65625 0zm18.65625 0l0 -14.0l-4.65625 0l0 -4.671875l4.65625 0l0 -4.65625l4.671875 0l0 23.328125l-4.671875 0z" fill-rule="nonzero"/>
        <path fill="#3d85c6" d="m12.171875 78.119995l0 -15.828125l9.5 0l0 3.15625l3.15625 0l0 3.171875l-3.15625 0l0 6.328125l3.15625 0l0 3.171875l-3.15625 0l0 -3.171875l-3.171875 0l0 -3.15625l-3.171875 0l0 6.328125l-3.15625 0zm3.15625 -9.5l6.203125 0l0 -3.171875l-6.203125 0l0 3.171875zm15.839874 9.5l0 -15.828125l9.5 0l0 3.15625l-6.34375 0l0 3.171875l6.34375 0l0 3.171875l-6.34375 0l0 3.15625l6.34375 0l0 3.171875l-9.5 0zm22.158218 0l0 -3.171875l-3.171875 0l0 -6.328125l-3.15625 0l0 -6.328125l3.15625 0l0 6.328125l3.171875 0l0 6.328125l3.171875 0l0 3.171875l-3.171875 0zm6.328125 -9.5l0 -6.328125l3.171875 0l0 6.328125l-3.171875 0zm-3.15625 6.328125l0 -6.328125l3.15625 0l0 6.328125l-3.15625 0zm12.66214 3.171875l0 -15.828125l3.15625 0l0 15.828125l-3.15625 0zm9.498062 0l0 -15.828125l9.5 0l0 3.15625l-6.34375 0l0 3.171875l6.34375 0l0 3.171875l-6.34375 0l0 3.15625l6.34375 0l0 3.171875l-9.5 0zm18.986343 0l0 -3.171875l-3.15625 0l0 -12.65625l3.15625 0l0 12.65625l3.171875 0l0 3.171875l-3.171875 0zm9.5 -3.171875l0 -12.65625l3.171875 0l0 12.65625l-3.171875 0zm-3.15625 3.171875l0 -3.171875l-3.171875 0l0 -9.5l3.171875 0l0 9.5l3.15625 0l0 3.171875l-3.15625 0zm15.81839 -12.671875l0 -3.15625l9.5 0l0 3.15625l-9.5 0zm6.34375 9.5l0 -3.15625l-6.34375 0l0 -3.171875l-3.15625 0l0 -3.171875l3.15625 0l0 3.171875l6.34375 0l0 3.171875l3.15625 0l0 3.15625l-3.15625 0zm-9.5 3.171875l0 -3.171875l9.5 0l0 3.171875l-9.5 0z" fill-rule="nonzero"/>
        <path fill="#000000" fill-opacity="0.0" d="m815.07086 173.66142l147.05511 0l0 42.015747l-147.05511 0z" fill-rule="evenodd"/>
    </g>
</svg> 