<?xml version="1.0" encoding="utf-8"?>
<svg version="1.1" viewBox="0 0 70.37 46.699" fill="none" stroke="none" stroke-linecap="square" stroke-miterlimit="10" xmlns="http://www.w3.org/2000/svg" xmlns:bx="https://boxy-svg.com" width="70.37px" height="46.699px"><defs><bx:export><bx:file format="svg"/></bx:export></defs><clipPath id="p.0"><path d="M -1.127 2.416 L 98.873 2.416 L 98.873 102.416 L -1.127 102.416 L -1.127 2.416 Z" clip-rule="nonzero"/></clipPath><path fill="#3d85c6" d="M 5.988 39.444 L 5.988 7.788 L 24.988 7.788 L 24.988 14.116 L 12.332 14.116 L 12.332 20.444 L 24.988 20.444 L 24.988 26.772 L 12.332 26.772 L 12.332 39.444 L 5.988 39.444 Z M 37.648 39.444 L 37.648 7.788 L 56.648 7.788 L 56.648 14.116 L 62.976 14.116 L 62.976 20.444 L 56.648 20.444 L 56.648 33.116 L 62.976 33.116 L 62.976 39.444 L 56.648 39.444 L 56.648 33.116 L 50.32 33.116 L 50.32 26.772 L 43.992 26.772 L 43.992 39.444 L 37.648 39.444 Z M 43.992 20.444 L 56.398 20.444 L 56.398 14.116 L 43.992 14.116 L 43.992 20.444 Z" fill-rule="nonzero" clip-path="url(#p.0)"/></svg>